HIERARCHY
ROOT Hips
{
	OFFSET 0.000000 97.420761 0.000000
	CHANNELS 6 Xposition Yposition Zposition Xrotation Yrotation Zrotation
	JOINT RightUpLeg
	{
		OFFSET -8.571318 0.002251 -0.000250
		CHANNELS 6 Xposition Yposition Zposition Xrotation Yrotation Zrotation
		JOINT RightLeg
		{
			OFFSET 0.000000 -44.326080 -0.000105
			CHANNELS 6 Xposition Yposition Zposition Xrotation Yrotation Zrotation
			JOINT RightFoot
			{
				OFFSET 0.000000 -43.324329 -0.000176
				CHANNELS 6 Xposition Yposition Zposition Xrotation Yrotation Zrotation
				JOINT RightToeBase
				{
					OFFSET 0.000000 -7.938133 18.050686
					CHANNELS 6 Xposition Yposition Zposition Xrotation Yrotation Zrotation
					End Site
					{
						OFFSET 0.000000 0.000000 19.719055
					}
				}
			}
		}
	}
	JOINT LeftUpLeg
	{
		OFFSET 8.571318 -0.000084 0.000009
		CHANNELS 6 Xposition Yposition Zposition Xrotation Yrotation Zrotation
		JOINT LeftLeg
		{
			OFFSET 0.000000 -44.326080 -0.000105
			CHANNELS 6 Xposition Yposition Zposition Xrotation Yrotation Zrotation
			JOINT LeftFoot
			{
				OFFSET 0.000000 -43.324329 -0.000176
				CHANNELS 6 Xposition Yposition Zposition Xrotation Yrotation Zrotation
				JOINT LeftToeBase
				{
					OFFSET 0.000000 -7.938133 18.050686
					CHANNELS 6 Xposition Yposition Zposition Xrotation Yrotation Zrotation
					End Site
					{
						OFFSET 0.000000 0.000000 19.719055
					}
				}
			}
		}
	}
	JOINT Spine
	{
		OFFSET 0.000000 10.422829 -1.158092
		CHANNELS 6 Xposition Yposition Zposition Xrotation Yrotation Zrotation
		JOINT Spine1
		{
			OFFSET 0.000000 11.587624 0.000000
			CHANNELS 3 Xrotation Yrotation Zrotation
			JOINT Spine2
			{
				OFFSET 0.000000 10.579559 -0.000443
				CHANNELS 6 Xposition Yposition Zposition Xrotation Yrotation Zrotation
				JOINT Spine3
				{
					OFFSET 0.000000 10.567749 -0.000444
					CHANNELS 6 Xposition Yposition Zposition Xrotation Yrotation Zrotation
					JOINT LeftShoulder
					{
						OFFSET 3.218383 8.290512 0.000000
						CHANNELS 6 Xposition Yposition Zposition Xrotation Yrotation Zrotation
						JOINT LeftArm
						{
							OFFSET 15.038529 0.000000 0.000000
							CHANNELS 3 Xrotation Yrotation Zrotation
							JOINT LeftForeArm
							{
								OFFSET 32.129166 0.000000 0.000000
								CHANNELS 3 Xrotation Yrotation Zrotation
								JOINT LeftHand
								{
									OFFSET 26.275406 0.000000 0.000000
									CHANNELS 3 Xrotation Yrotation Zrotation
									End Site
									{
										OFFSET 26.275406 0.000000 0.000000
									}
								}
							}
						}
					}
					JOINT RightShoulder
					{
						OFFSET -3.218383 8.290512 0.000000
						CHANNELS 6 Xposition Yposition Zposition Xrotation Yrotation Zrotation
						JOINT RightArm
						{
							OFFSET -15.038529 0.000000 0.000000
							CHANNELS 3 Xrotation Yrotation Zrotation
							JOINT RightForeArm
							{
								OFFSET -32.129166 0.000000 0.000000
								CHANNELS 3 Xrotation Yrotation Zrotation
								JOINT RightHand
								{
									OFFSET -26.275406 0.000000 0.000000
									CHANNELS 3 Xrotation Yrotation Zrotation
									End Site
									{
										OFFSET -26.275406 0.000000 0.000000
									}
								}
							}
						}
					}
					JOINT Neck
					{
						OFFSET 0.000000 14.789474 0.000000
						CHANNELS 6 Xposition Yposition Zposition Xrotation Yrotation Zrotation
						JOINT Head
						{
							OFFSET 0.000000 9.838806 0.000953
							CHANNELS 6 Xposition Yposition Zposition Xrotation Yrotation Zrotation
							End Site
							{
								OFFSET 0.000000 9.838806 0.000000
							}
						}
					}
				}
			}
		}
	}
}
MOTION
Frames: 10
Frame Time: 0.016667
0.000000 97.420761 0.000000 -0.000000 0.000000 -0.000000 -8.571318 0.002251 -0.000250 -0.000000 0.000000 -0.000000 0.000000 -44.326080 -0.000105 -0.000000 0.000000 -0.000000 0.000000 -43.324329 -0.000176 -0.000000 0.000000 -0.000000 0.000000 -7.938133 18.050686 -0.000000 0.000000 -0.000000 8.571318 -0.000084 0.000009 -0.000000 0.000000 -0.000000 0.000000 -44.326080 -0.000105 -0.000000 0.000000 -0.000000 0.000000 -43.324329 -0.000176 -0.000000 0.000000 -0.000000 0.000000 -7.938133 18.050686 -0.000000 0.000000 -0.000000 0.000000 10.422829 -1.158092 -0.000000 0.000000 -0.000000 -0.000000 0.000000 -0.000000 0.000000 10.579559 -0.000443 -0.000000 0.000000 -0.000000 0.000000 10.567749 -0.000444 -0.000000 0.000000 -0.000000 3.218383 8.290512 0.000000 -0.000000 0.000000 -0.000000 -0.000000 0.000000 -0.000000 -0.000000 0.000000 -0.000000 -0.000000 0.000000 -0.000000 -3.218383 8.290512 0.000000 -0.000000 0.000000 -0.000000 -0.000000 0.000000 -0.000000 -0.000000 0.000000 -0.000000 -0.000000 0.000000 -0.000000 0.000000 14.789474 0.000000 -0.000000 0.000000 -0.000000 0.000000 9.838806 0.000953 -0.000000 0.000000 -0.000000 
-183.448792 17.649345 172.071594 -101.632812 -3.763075 28.388401 -8.571303 0.002256 -0.000246 -35.118439 1.223463 -5.066236 -0.000019 -44.326096 -0.000110 121.472934 -0.256208 -0.299235 0.000013 -43.324341 -0.000177 11.675701 -5.631290 3.202202 0.000010 -7.938133 18.050680 0.000000 0.000001 0.000000 8.571323 -0.000090 0.000013 -40.645100 -6.748414 -2.845484 0.000022 -44.326077 -0.000098 129.242916 0.247462 -0.019365 0.000004 -43.324329 -0.000178 0.702209 -8.096776 -6.005339 -0.000000 -7.938135 18.050680 -0.000000 0.000002 0.000001 0.000001 10.422832 -1.158088 0.615996 -3.184408 0.242539 -5.556124 -1.418805 -0.040748 0.000008 10.579561 -0.000446 0.264307 -1.418799 -0.040890 -0.000016 10.567712 -0.000446 6.036003 -1.061753 0.077007 3.218382 8.290513 0.000001 -8.919102 2.267419 -2.395839 28.584115 -12.371853 -77.756492 8.996070 -10.269687 -3.581036 3.999466 10.960628 -15.815730 -3.218380 8.290508 -0.000002 -11.323990 -6.065030 0.287486 20.458454 13.965339 87.955911 24.268060 -1.652123 -3.630586 2.669402 -8.881135 13.398150 0.000005 14.789473 -0.000001 3.032339 0.463867 0.311057 -0.000004 9.838807 0.000949 -30.400281 0.657040 0.798765 
-183.441132 17.766426 172.076324 -101.838339 -3.932319 28.349492 -8.571281 0.002256 -0.000244 -34.709508 1.274737 -4.982620 0.000019 -44.326084 -0.000111 121.352627 -0.219007 -0.270004 -0.000003 -43.324329 -0.000187 11.705360 -5.643875 3.193198 0.000014 -7.938133 18.050669 -0.000000 0.000000 -0.000000 8.571342 -0.000093 0.000013 -40.265519 -6.659469 -2.819234 0.000018 -44.326084 -0.000102 129.163631 0.221063 -0.005918 -0.000002 -43.324329 -0.000200 0.697787 -7.964642 -5.998326 0.000021 -7.938133 18.050686 0.000000 -0.000002 -0.000000 0.000035 10.422818 -1.158093 0.696193 -3.160040 0.237176 -5.520418 -1.407771 -0.042529 0.000004 10.579551 -0.000447 0.300011 -1.407766 -0.042678 0.000002 10.567746 -0.000436 6.062769 -1.053660 0.074756 3.218374 8.290526 0.000005 -8.798067 2.243421 -2.413835 28.468831 -12.365783 -77.870871 8.988001 -10.163461 -3.459435 4.009357 10.975726 -15.832973 -3.218381 8.290533 0.000003 -11.174365 -6.080177 0.312692 20.558758 14.091463 88.199701 24.759350 -1.509753 -3.660063 2.628718 -9.191697 14.107983 -0.000001 14.789492 0.000002 3.071092 0.469957 0.313518 0.000005 9.838827 0.000957 -30.328372 0.666778 0.806206 
-183.438095 17.872711 172.072296 -102.027440 -4.083337 28.321519 -8.571325 0.002252 -0.000248 -34.337004 1.312507 -4.903976 0.000008 -44.326069 -0.000118 121.227566 -0.192315 -0.252649 0.000019 -43.324329 -0.000172 11.758525 -5.651826 3.181773 -0.000001 -7.938133 18.050684 -0.000001 -0.000000 0.000000 8.571320 -0.000080 0.000016 -39.901863 -6.575622 -2.802021 0.000009 -44.326080 -0.000090 129.089059 0.199462 0.011766 -0.000012 -43.324333 -0.000217 0.675174 -7.856332 -5.986993 0.000008 -7.938132 18.050688 0.000000 0.000002 0.000000 -0.000013 10.422838 -1.158090 0.769776 -3.137788 0.231051 -5.487647 -1.397638 -0.044693 0.000015 10.579557 -0.000442 0.332783 -1.397633 -0.044841 -0.000008 10.567768 -0.000440 6.087338 -1.046270 0.072303 3.218392 8.290517 0.000002 -8.687664 2.218916 -2.427220 28.368648 -12.355945 -77.954848 8.996339 -10.080983 -3.375347 4.017360 10.987290 -15.845093 -3.218371 8.290532 0.000002 -11.039564 -6.085264 0.331813 20.628295 14.214367 88.378618 25.158288 -1.400358 -3.616828 2.584073 -9.557845 14.739193 0.000003 14.789474 -0.000001 3.103453 0.471359 0.315088 0.000007 9.838792 0.000955 -30.268287 0.668635 0.809594 
-183.443588 17.966812 172.051254 -102.200059 -4.213103 28.312785 -8.571342 0.002230 -0.000246 -34.001453 1.324413 -4.827327 -0.000023 -44.326092 -0.000117 121.083845 -0.185970 -0.258612 0.000021 -43.324337 -0.000153 11.858182 -5.648887 3.162919 0.000003 -7.938132 18.050680 0.000000 -0.000000 0.000000 8.571276 -0.000094 0.000012 -39.538818 -6.490366 -2.798346 0.000031 -44.326084 -0.000085 129.017192 0.186232 0.042129 -0.000010 -43.324322 -0.000198 0.618080 -7.784571 -5.966722 0.000014 -7.938128 18.050674 -0.000001 0.000000 -0.000000 -0.000015 10.422796 -1.158094 0.837227 -3.117568 0.223320 -5.457595 -1.388327 -0.047617 0.000004 10.579555 -0.000442 0.362839 -1.388321 -0.047762 0.000012 10.567763 -0.000441 6.109871 -1.039549 0.069346 3.218372 8.290538 0.000003 -8.589403 2.191692 -2.434259 28.290539 -12.342555 -77.986096 9.035138 -10.037068 -3.356428 4.021553 10.992845 -15.848175 -3.218393 8.290530 0.000002 -10.921538 -6.071285 0.339259 20.648099 14.346312 88.452985 25.426725 -1.333913 -3.417979 2.533692 -10.127578 15.323657 -0.000020 14.789486 0.000000 3.126717 0.464399 0.313658 0.000010 9.838799 0.000954 -30.225008 0.657195 0.803260 
-183.453064 18.044907 172.022736 -102.346498 -4.317610 28.315599 -8.571319 0.002252 -0.000246 -33.720962 1.322097 -4.759820 -0.000001 -44.326080 -0.000090 120.943840 -0.190097 -0.275893 -0.000011 -43.324329 -0.000175 11.975284 -5.641658 3.142961 -0.000008 -7.938132 18.050663 0.000000 0.000000 0.000000 8.571313 -0.000068 0.000016 -39.212201 -6.415683 -2.803891 0.000008 -44.326096 -0.000102 128.954149 0.178457 0.074668 0.000001 -43.324333 -0.000172 0.546406 -7.740304 -5.943240 -0.000024 -7.938132 18.050667 0.000000 -0.000001 -0.000000 0.000010 10.422850 -1.158086 0.894296 -3.100648 0.215279 -5.432157 -1.380458 -0.050759 -0.000001 10.579565 -0.000446 0.388273 -1.380454 -0.050899 -0.000021 10.567736 -0.000453 6.128944 -1.033917 0.066349 3.218392 8.290521 0.000000 -8.507198 2.165484 -2.436290 28.231730 -12.326088 -77.985850 9.088080 -10.018936 -3.375387 4.023695 10.994626 -15.846071 -3.218383 8.290526 0.000002 -10.824919 -6.048358 0.340362 20.636814 14.466494 88.459378 25.587473 -1.299456 -3.158563 2.483836 -10.720538 15.794717 0.000016 14.789482 0.000000 3.142350 0.453207 0.311508 0.000005 9.838802 0.000952 -30.195860 0.638584 0.793425 
-183.461304 18.119370 171.994690 -102.484605 -4.413034 28.317959 -8.571322 0.002228 -0.000246 -33.461834 1.326843 -4.698195 -0.000025 -44.326092 -0.000114 120.810173 -0.186870 -0.286579 -0.000002 -43.324333 -0.000190 12.092453 -5.642114 3.129501 -0.000013 -7.938132 18.050703 -0.000000 0.000001 -0.000000 8.571324 -0.000091 0.000014 -38.904392 -6.358501 -2.814792 -0.000012 -44.326080 -0.000100 128.894576 0.168555 0.096393 -0.000001 -43.324326 -0.000193 0.473841 -7.698514 -5.920164 0.000021 -7.938129 18.050686 -0.000001 -0.000000 -0.000000 0.000005 10.422804 -1.158091 0.946854 -3.085374 0.206828 -5.408725 -1.373300 -0.054121 -0.000006 10.579551 -0.000434 0.411706 -1.373293 -0.054266 0.000006 10.567738 -0.000450 6.146514 -1.028832 0.063250 3.218393 8.290496 0.000000 -8.427317 2.140008 -2.434638 28.172345 -12.298970 -77.990577 9.142608 -10.001226 -3.391538 4.028087 10.996994 -15.844878 -3.218381 8.290490 -0.000002 -10.735260 -6.028036 0.345788 20.619113 14.563042 88.454754 25.700904 -1.280730 -2.945864 2.423334 -11.117879 16.093304 0.000003 14.789481 0.000004 3.155925 0.441419 0.313342 -0.000005 9.838784 0.000957 -30.170506 0.616778 0.790355 
-183.466644 18.195602 171.969269 -102.624064 -4.506473 28.316214 -8.571337 0.002254 -0.000251 -33.206566 1.350356 -4.638482 -0.000017 -44.326088 -0.000117 120.680031 -0.161531 -0.280759 -0.000020 -43.324329 -0.000206 12.210607 -5.660417 3.126551 -0.000014 -7.938133 18.050695 -0.000000 -0.000001 -0.000000 8.571308 -0.000079 0.000006 -38.602880 -6.326575 -2.831243 -0.000001 -44.326092 -0.000101 128.835686 0.151252 0.098268 -0.000003 -43.324322 -0.000188 0.403107 -7.653570 -5.897675 -0.000015 -7.938129 18.050694 0.000001 0.000002 0.000000 -0.000021 10.422829 -1.158093 0.998335 -3.070753 0.197302 -5.385763 -1.366375 -0.057984 -0.000031 10.579556 -0.000441 0.434665 -1.366371 -0.058126 0.000010 10.567719 -0.000448 6.163730 -1.023961 0.059795 3.218379 8.290497 -0.000003 -8.342388 2.113854 -2.428751 28.100599 -12.251983 -78.013055 9.197841 -9.973548 -3.393102 4.037085 11.002389 -15.846070 -3.218372 8.290500 -0.000005 -10.647041 -6.014742 0.361673 20.603395 14.637565 88.456059 25.778864 -1.285326 -2.835164 2.330676 -11.166792 16.126070 0.000022 14.789450 -0.000007 3.168696 0.428261 0.322749 -0.000002 9.838801 0.000954 -30.146652 0.588521 0.800008 
-183.470428 18.263939 171.945709 -102.747376 -4.585607 28.314174 -8.571302 0.002233 -0.000253 -32.987157 1.379397 -4.588092 -0.000026 -44.326092 -0.000091 120.563508 -0.130740 -0.268696 -0.000015 -43.324329 -0.000191 12.321998 -5.685096 3.130268 -0.000017 -7.938132 18.050707 -0.000000 0.000000 0.000000 8.571325 -0.000093 0.000007 -38.337104 -6.313772 -2.851862 0.000006 -44.326080 -0.000115 128.783654 0.132888 0.089378 -0.000008 -43.324329 -0.000197 0.335426 -7.613410 -5.876891 0.000002 -7.938133 18.050676 0.000000 0.000000 -0.000000 0.000019 10.422817 -1.158092 1.042378 -3.058605 0.187910 -5.366115 -1.360550 -0.061843 -0.000006 10.579557 -0.000443 0.454315 -1.360544 -0.061988 0.000012 10.567739 -0.000442 6.178467 -1.019908 0.056430 3.218380 8.290524 0.000004 -8.264582 2.089957 -2.419517 28.032526 -12.197174 -78.039248 9.251472 -9.947870 -3.391616 4.047812 11.008031 -15.848155 -3.218383 8.290521 0.000004 -10.570704 -6.004738 0.380914 20.582080 14.683851 88.446346 25.805377 -1.306133 -2.776181 2.231392 -11.023160 15.983544 -0.000004 14.789469 0.000002 3.178732 0.415322 0.335545 -0.000002 9.838777 0.000956 -30.127855 0.558839 0.815802 
-183.472321 18.331978 171.921295 -102.864281 -4.657921 28.310393 -8.571334 0.002264 -0.000253 -32.786831 1.407142 -4.547384 0.000023 -44.326073 -0.000133 120.452367 -0.112885 -0.258022 -0.000020 -43.324333 -0.000186 12.426966 -5.704297 3.138154 0.000000 -7.938134 18.050699 0.000000 0.000000 -0.000000 8.571307 -0.000077 0.000010 -38.082714 -6.305360 -2.876531 0.000004 -44.326065 -0.000097 128.733753 0.117633 0.079631 0.000009 -43.324326 -0.000196 0.264111 -7.563840 -5.857211 -0.000015 -7.938132 18.050673 -0.000000 0.000002 0.000000 -0.000016 10.422855 -1.158091 1.081700 -3.048311 0.178757 -5.348569 -1.355559 -0.065659 0.000000 10.579576 -0.000445 0.471862 -1.355551 -0.065800 0.000005 10.567745 -0.000448 6.191629 -1.016472 0.053166 3.218375 8.290504 0.000002 -8.188700 2.068061 -2.407545 27.970987 -12.142133 -78.072730 9.303678 -9.925120 -3.381349 4.059863 11.012193 -15.853113 -3.218399 8.290510 0.000001 -10.496321 -5.995047 0.400311 20.549819 14.690531 88.427789 25.800701 -1.315458 -2.711384 2.152646 -10.858114 15.813652 -0.000012 14.789481 0.000001 3.189134 0.405843 0.348897 -0.000019 9.838809 0.000953 -30.108413 0.534999 0.834428 
